<svg aria-hidden="true" style="width:0;height:0;position:absolute;overflow:hidden" xmlns="http://www.w3.org/2000/svg"><defs><symbol id="icon-close" viewBox="0 0 32 32"><path d="M32 3.223 28.777 0 16 12.777 3.223 0 0 3.223 12.777 16 0 28.777 3.223 32 16 19.223 28.777 32 32 28.777 19.223 16 32 3.223z"/></symbol><symbol id="icon-arrow-left" viewBox="0 0 32 32"><path stroke-linejoin="round" stroke-linecap="round" stroke-width="2.667" d="M25.333 16H6.666M16 25.334l-9.333-9.333L16 6.668"/></symbol><symbol id="icon-close" viewBox="0 0 32 32"><path stroke-width="2.133" d="m8.533 8.533 14.933 14.933M8.533 23.467 23.466 8.534"/></symbol><symbol id="icon-favorite" viewBox="0 0 32 32"><path fill="#ff6b08" style="fill:var(--color1,#ff6b08)" d="m16 30.583-2.24-2.24C5.44 20.983 0 16.023 0 9.943c0-4.96 3.84-8.8 8.8-8.8 2.72 0 5.44 1.28 7.2 3.36 1.76-2.08 4.48-3.36 7.2-3.36 4.96 0 8.8 3.84 8.8 8.8 0 6.08-5.44 11.04-13.76 18.4L16 30.583z"/></symbol><symbol id="icon-film" viewBox="0 0 32 32"><path fill="none" stroke="currentColor" stroke-linejoin="round" stroke-linecap="round" stroke-width="2.667" d="M26.427 2.667H5.574a2.907 2.907 0 0 0-2.907 2.907v20.853a2.907 2.907 0 0 0 2.907 2.907h20.853a2.907 2.907 0 0 0 2.907-2.907V5.574a2.907 2.907 0 0 0-2.907-2.907zM9.333 2.667v26.667M22.667 2.667v26.667M2.667 16h26.667M2.667 9.333h6.667M2.667 22.667h6.667M22.667 22.667h6.667M22.667 9.333h6.667"/></symbol><symbol id="icon-search" viewBox="0 0 32 32"><path fill="none" stroke="currentColor" stroke-linejoin="round" stroke-linecap="round" stroke-width="2.667" d="M14.667 25.333c5.891 0 10.667-4.776 10.667-10.667S20.558 3.999 14.667 3.999 4 8.775 4 14.666s4.776 10.667 10.667 10.667zM28 28.001l-5.8-5.8"/></symbol><symbol id="icon-arrow-left" viewBox="0 0 16 16" fill="none" xmlns="http://www.w3.org/2000/svg"><path d="M12.667 8H3.333M8 12.667 3.333 8 8 3.333" stroke="#000" stroke-width="1.333" stroke-linecap="round" stroke-linejoin="round"/></symbol><symbol id="icon-arrow-right" viewBox="0 0 16 16" fill="none" xmlns="http://www.w3.org/2000/svg"><path d="M3.333 8h9.334M8 12.667 12.667 8 8 3.333" stroke="#000" stroke-width="1.333" stroke-linecap="round" stroke-linejoin="round"/></symbol><symbol id="icon-arrow" viewBox="0 0 320 512"><path d="M310.6 182.6c-12.51 12.51-32.76 12.49-45.25 0L192 109.3V480c0 17.69-14.31 32-32 32s-32-14.31-32-32V109.3l-73.37 73.3c-12.5 12.5-32.75 12.5-45.25 0s-12.5-32.75 0-45.25l128-128c12.5-12.5 32.75-12.5 45.25 0l128 128c12.47 12.55 12.47 32.75-.03 45.25z"/></symbol><symbol id="icon-darkTheme" viewBox="0 0 32 32"><path d="M17.212 31.294C8.774 31.294 1.918 24.431 1.918 16S8.781.706 17.212.706c.512 0 1.025.025 1.538.075.45.044.844.325 1.031.731s.15.887-.1 1.262a12.637 12.637 0 0 0-2.2 7.138 12.68 12.68 0 0 0 11.45 12.663c.45.044.844.325 1.031.731.194.406.15.887-.1 1.262-2.863 4.212-7.587 6.725-12.65 6.725zm-.781-28C9.775 3.7 4.481 9.244 4.481 16c0 7.019 5.713 12.731 12.731 12.731 3.525 0 6.85-1.462 9.238-3.981a15.31 15.31 0 0 1-7.55-4.538 15.26 15.26 0 0 1-2.469-16.918z"/></symbol><symbol id="icon-lightTheme" viewBox="0 0 32 32"><path d="M8.5 15.986c0 4.148 3.358 7.51 7.5 7.51s7.5-3.363 7.5-7.51c0-4.148-3.358-7.51-7.5-7.51s-7.5 3.362-7.5 7.51zm14 0c0 3.589-2.916 6.509-6.5 6.509s-6.5-2.92-6.5-6.509c0-3.589 2.916-6.509 6.5-6.509s6.5 2.92 6.5 6.509zM16.371 5.885a.5.5 0 0 0 .5-.5V.499a.5.5 0 0 0-1 0v4.884a.5.5 0 0 0 .5.5zm7.952-3.556a.498.498 0 0 0-.683.18l-.001.002-2.442 4.229a.5.5 0 0 0 .864.504l.001-.002 2.442-4.229a.5.5 0 0 0-.18-.683l-.002-.001zm1.058 9.185a.5.5 0 0 0 .25-.067l4.229-2.442a.502.502 0 0 0-.25-.934.5.5 0 0 0-.252.068l.002-.001-4.23 2.442a.501.501 0 0 0 .25.935zM5.884 16.371a.5.5 0 0 0-.5-.5H.5a.5.5 0 0 0-.5.5v.002a.5.5 0 0 0 .5.5h4.884a.5.5 0 0 0 .5-.5v-.001zM2.141 9.005l4.229 2.442a.501.501 0 0 0 .682-.181l.001-.002a.502.502 0 0 0-.181-.683l-.002-.001-4.229-2.442a.501.501 0 0 0-.682.181l-.001.002a.502.502 0 0 0 .181.683l.002.001zm8.229-1.513a.5.5 0 0 0 .431-.753l.001.002-2.441-4.229a.5.5 0 0 0-.686-.182l.002-.001a.502.502 0 0 0-.183.684l2.441 4.229a.5.5 0 0 0 .434.25zm6.001 18.624a.5.5 0 0 0-.5.5V31.5a.5.5 0 0 0 1 0v-4.883a.5.5 0 0 0-.5-.5zm-5.107-1.169a.497.497 0 0 0-.681.18l-.001.002-2.442 4.229a.5.5 0 0 0 .432.751h.001a.5.5 0 0 0 .431-.248l.001-.002 2.442-4.229a.5.5 0 0 0-.181-.683l-.002-.001zm-4.523-3.751-4.229 2.442a.501.501 0 0 0 .251.935.5.5 0 0 0 .252-.068l-.002.001 4.229-2.442a.502.502 0 1 0-.502-.866l.002-.001zM31.5 15.87h-4.883a.5.5 0 0 0-.5.5v.002a.5.5 0 0 0 .5.5H31.5a.5.5 0 0 0 .5-.5v-.001a.5.5 0 0 0-.5-.5zm-2.012 7.768-4.229-2.442a.501.501 0 0 0-.682.181l-.001.002a.503.503 0 0 0 .181.683l.002.001 4.229 2.442a.496.496 0 0 0 .681-.182l.001-.002a.502.502 0 0 0-.181-.683l-.002-.001zm-8.069 1.491a.5.5 0 0 0-.685-.181l.002-.001a.502.502 0 0 0-.181.686l-.001-.002 2.442 4.229a.5.5 0 0 0 .685.181l-.002.001a.501.501 0 0 0 .183-.684l-2.442-4.229z"/></symbol></defs></svg>