<svg aria-hidden="true" style="position: absolute; width: 0; height: 0; overflow: hidden;" version="1.1" xmlns="http://www.w3.org/2000/svg" xmlns:xlink="http://www.w3.org/1999/xlink">
<defs>
<symbol id="icon-close" viewBox="0 0 32 32">
    <path d="M32 3.223 28.777 0 16 12.777 3.223 0 0 3.223 12.777 16 0 28.777 3.223 32 16 19.223 28.777 32 32 28.777 19.223 16 32 3.223z"></path>
</symbol>
<symbol id="icon-arrow-left1" viewBox="0 0 32 32">
<path stroke-linejoin="round" stroke-linecap="round" stroke-miterlimit="4" stroke-width="2.6667" d="M25.333 16h-18.667"></path>
<path stroke-linejoin="round" stroke-linecap="round" stroke-miterlimit="4" stroke-width="2.6667" d="M16 25.334l-9.333-9.333 9.333-9.333"></path>
</symbol>
<symbol id="icon-close" viewBox="0 0 32 32">
<path stroke-linejoin="miter" stroke-linecap="butt" stroke-miterlimit="4" stroke-width="2.1333" d="M8.533 8.533l14.933 14.933"></path>
<path stroke-linejoin="miter" stroke-linecap="butt" stroke-miterlimit="4" stroke-width="2.1333" d="M8.533 23.467l14.933-14.933"></path>
</symbol>
<symbol id="icon-favorite" viewBox="0 0 32 32">
<path fill="#ff6b08" style="fill: var(--color1, #ff6b08)" d="M16 30.583l-2.24-2.24c-8.32-7.36-13.76-12.32-13.76-18.4 0-4.96 3.84-8.8 8.8-8.8 2.72 0 5.44 1.28 7.2 3.36 1.76-2.080 4.48-3.36 7.2-3.36 4.96 0 8.8 3.84 8.8 8.8 0 6.080-5.44 11.040-13.76 18.4l-2.24 2.24z"></path>
</symbol>
<symbol id="icon-film" viewBox="0 0 32 32">
<path fill="none" stroke="currentColor" stroke-linejoin="round" stroke-linecap="round" stroke-miterlimit="4" stroke-width="2.6667" d="M26.427 2.667h-20.853c-1.605 0-2.907 1.301-2.907 2.907v20.853c0 1.605 1.301 2.907 2.907 2.907h20.853c1.605 0 2.907-1.301 2.907-2.907v-20.853c0-1.605-1.301-2.907-2.907-2.907z"></path>
<path fill="none" stroke="currentColor" stroke-linejoin="round" stroke-linecap="round" stroke-miterlimit="4" stroke-width="2.6667" d="M9.333 2.667v26.667"></path>
<path fill="none" stroke="currentColor" stroke-linejoin="round" stroke-linecap="round" stroke-miterlimit="4" stroke-width="2.6667" d="M22.667 2.667v26.667"></path>
<path fill="none" stroke="currentColor" stroke-linejoin="round" stroke-linecap="round" stroke-miterlimit="4" stroke-width="2.6667" d="M2.667 16h26.667"></path>
<path fill="none" stroke="currentColor" stroke-linejoin="round" stroke-linecap="round" stroke-miterlimit="4" stroke-width="2.6667" d="M2.667 9.333h6.667"></path>
<path fill="none" stroke="currentColor" stroke-linejoin="round" stroke-linecap="round" stroke-miterlimit="4" stroke-width="2.6667" d="M2.667 22.667h6.667"></path>
<path fill="none" stroke="currentColor" stroke-linejoin="round" stroke-linecap="round" stroke-miterlimit="4" stroke-width="2.6667" d="M22.667 22.667h6.667"></path>
<path fill="none" stroke="currentColor" stroke-linejoin="round" stroke-linecap="round" stroke-miterlimit="4" stroke-width="2.6667" d="M22.667 9.333h6.667"></path>
</symbol>
<symbol id="icon-search" viewBox="0 0 32 32">
<path fill="none" stroke="currentColor" stroke-linejoin="round" stroke-linecap="round" stroke-miterlimit="4" stroke-width="2.6667" d="M14.667 25.333c5.891 0 10.667-4.776 10.667-10.667s-4.776-10.667-10.667-10.667c-5.891 0-10.667 4.776-10.667 10.667s4.776 10.667 10.667 10.667z"></path>
<path fill="none" stroke="currentColor" stroke-linejoin="round" stroke-linecap="round" stroke-miterlimit="4" stroke-width="2.6667" d="M28 28.001l-5.8-5.8"></path>
</symbol>
<symbol id="icon-arrow-left" viewBox="0 0 16 16"  xmlns="http://www.w3.org/2000/svg">
<path d="M12.6667 8H3.33334" stroke="black" stroke-width="1.33333" stroke-linecap="round" stroke-linejoin="round"/>
<path d="M8.00001 12.6667L3.33334 8.00004L8.00001 3.33337" stroke="black" stroke-width="1.33333" stroke-linecap="round" stroke-linejoin="round"/>
</symbol>
<symbol id="icon-arrow-right" viewBox="0 0 16 16"  xmlns="http://www.w3.org/2000/svg">
<path d="M3.33335 8H12.6667" stroke="black" stroke-width="1.33333" stroke-linecap="round" stroke-linejoin="round"/>
<path d="M8.00002 12.6667L12.6667 8.00004L8.00002 3.33337" stroke="black" stroke-width="1.33333" stroke-linecap="round" stroke-linejoin="round"/>
</symbol>
<symbol id="icon-arrow" viewBox="0 0 320 512">
<path d="M310.6 182.6c-12.51 12.51-32.76 12.49-45.25 0L192 109.3V480c0 17.69-14.31 32-32 32s-32-14.31-32-32V109.3L54.63 182.6c-12.5 12.5-32.75 12.5-45.25 0s-12.5-32.75 0-45.25l128-128c12.5-12.5 32.75-12.5 45.25 0l128 128C323.1 149.9 323.1 170.1 310.6 182.6z"/>
</symbol>
<symbol id="icon-darkTheme" viewBox="0 0 32 32">
<path d="M17.212 31.294c-8.438 0-15.294-6.863-15.294-15.294s6.863-15.294 15.294-15.294c0.512 0 1.025 0.025 1.538 0.075 0.45 0.044 0.844 0.325 1.031 0.731s0.15 0.887-0.1 1.262c-1.438 2.112-2.2 4.581-2.2 7.138 0 6.563 4.919 12.012 11.45 12.663 0.45 0.044 0.844 0.325 1.031 0.731 0.194 0.406 0.15 0.887-0.1 1.262-2.863 4.212-7.587 6.725-12.65 6.725zM16.431 3.294c-6.656 0.406-11.95 5.95-11.95 12.706 0 7.019 5.713 12.731 12.731 12.731 3.525 0 6.85-1.462 9.238-3.981-2.887-0.731-5.506-2.3-7.55-4.538-2.569-2.825-3.988-6.475-3.988-10.287 0.006-2.319 0.525-4.575 1.519-6.631z"></path>
</symbol>
<symbol id="icon-lightTheme" viewBox="0 0 32 32"><path d="M8.5 15.986c0 4.148 3.358 7.51 7.5 7.51s7.5-3.363 7.5-7.51c0-4.148-3.358-7.51-7.5-7.51s-7.5 3.362-7.5 7.51zM22.5 15.986c0 3.589-2.916 6.509-6.5 6.509s-6.5-2.92-6.5-6.509c0-3.589 2.916-6.509 6.5-6.509s6.5 2.92 6.5 6.509zM16.371 5.885c0.276 0 0.5-0.224 0.5-0.5 0-0 0-0 0-0.001v0-4.885c0-0.276-0.224-0.5-0.5-0.5s-0.5 0.224-0.5 0.5v0 4.884c0 0 0 0 0 0 0 0.276 0.224 0.5 0.5 0.5v0zM24.323 2.329c-0.072-0.043-0.159-0.068-0.252-0.068-0.184 0-0.345 0.1-0.431 0.248l-0.001 0.002-2.442 4.229c-0.036 0.067-0.057 0.148-0.057 0.233 0 0.276 0.224 0.5 0.5 0.5 0.176 0 0.332-0.091 0.421-0.229l0.001-0.002 2.442-4.229c0.042-0.072 0.067-0.159 0.067-0.251 0-0.184-0.099-0.345-0.247-0.432l-0.002-0.001zM25.381 11.514c0.084 0 0.17-0.021 0.25-0.067l4.229-2.442c0.238-0.138 0.321-0.444 0.183-0.684-0.088-0.151-0.249-0.25-0.433-0.25-0.092 0-0.178 0.025-0.252 0.068l0.002-0.001-4.23 2.442c-0.15 0.089-0.248 0.249-0.248 0.433 0 0.276 0.223 0.5 0.498 0.502h0zM5.884 16.371c0-0 0-0 0-0 0-0.276-0.224-0.5-0.5-0.5h-4.884c-0.276 0-0.5 0.224-0.5 0.5 0 0 0 0 0 0.001v-0c0 0 0 0.001 0 0.001 0 0.276 0.224 0.5 0.5 0.5 0 0 0 0 0 0h4.884c0 0 0 0 0 0 0.276 0 0.5-0.224 0.5-0.5 0-0 0-0.001 0-0.001v0zM2.141 9.005l4.229 2.442c0.072 0.042 0.158 0.067 0.25 0.067 0.184 0 0.345-0.1 0.432-0.248l0.001-0.002c0.042-0.072 0.067-0.158 0.067-0.25 0-0.184-0.099-0.345-0.248-0.433l-0.002-0.001-4.229-2.442c-0.072-0.042-0.158-0.067-0.25-0.067-0.184 0-0.345 0.1-0.432 0.248l-0.001 0.002c-0.042 0.072-0.067 0.158-0.067 0.25 0 0.184 0.099 0.345 0.248 0.433l0.002 0.001zM10.37 7.492c0.276-0.001 0.499-0.225 0.499-0.501 0-0.092-0.025-0.178-0.068-0.252l0.001 0.002-2.441-4.229c-0.088-0.151-0.249-0.251-0.433-0.251-0.092 0-0.179 0.025-0.253 0.069l0.002-0.001c-0.239 0.139-0.321 0.445-0.183 0.684l2.441 4.229c0.093 0.161 0.261 0.25 0.434 0.25zM16.371 26.116c-0.276 0-0.5 0.224-0.5 0.5 0 0 0 0 0 0.001v-0 4.883c0 0.276 0.224 0.5 0.5 0.5s0.5-0.224 0.5-0.5v0-4.883c0-0 0-0 0-0 0-0.276-0.224-0.5-0.5-0.5v0zM11.264 24.947c-0.072-0.043-0.159-0.068-0.251-0.068-0.184 0-0.344 0.1-0.43 0.248l-0.001 0.002-2.442 4.229c-0.042 0.072-0.068 0.159-0.068 0.251 0 0.276 0.224 0.5 0.5 0.5h0c0 0 0.001 0 0.001 0 0.184 0 0.344-0.1 0.431-0.248l0.001-0.002 2.442-4.229c0.042-0.072 0.067-0.158 0.067-0.251 0-0.184-0.099-0.345-0.248-0.432l-0.002-0.001zM6.741 21.196l-4.229 2.442c-0.15 0.089-0.248 0.249-0.248 0.433 0 0.276 0.223 0.5 0.499 0.502h0c0.092 0 0.178-0.025 0.252-0.068l-0.002 0.001 4.229-2.442c0.239-0.138 0.322-0.445 0.184-0.684-0.088-0.151-0.249-0.251-0.433-0.251-0.092 0-0.179 0.025-0.253 0.069l0.002-0.001zM31.5 15.87h-4.883c0 0 0 0 0 0-0.276 0-0.5 0.224-0.5 0.5 0 0 0 0.001 0 0.001v-0c0 0 0 0.001 0 0.001 0 0.276 0.224 0.5 0.5 0.5 0 0 0 0 0 0h4.883c0 0 0 0 0 0 0.276 0 0.5-0.224 0.5-0.5 0-0 0-0.001 0-0.001v0c0-0 0-0 0-0 0-0.276-0.224-0.5-0.5-0.5v0zM29.488 23.638l-4.229-2.442c-0.072-0.042-0.158-0.067-0.25-0.067-0.184 0-0.345 0.1-0.432 0.248l-0.001 0.002c-0.042 0.072-0.067 0.158-0.067 0.25 0 0.184 0.1 0.346 0.248 0.433l0.002 0.001 4.229 2.442c0.072 0.042 0.158 0.067 0.25 0.067 0.184 0 0.345-0.1 0.431-0.249l0.001-0.002c0.042-0.072 0.067-0.158 0.067-0.25 0-0.184-0.099-0.345-0.248-0.433l-0.002-0.001zM21.419 25.129c-0.088-0.15-0.248-0.25-0.432-0.25-0.093 0-0.179 0.025-0.253 0.069l0.002-0.001c-0.15 0.088-0.25 0.249-0.25 0.433 0 0.092 0.025 0.179 0.069 0.253l-0.001-0.002 2.442 4.229c0.088 0.15 0.248 0.25 0.432 0.25 0.092 0 0.179-0.025 0.253-0.069l-0.002 0.001c0.239-0.138 0.321-0.444 0.183-0.684l-2.442-4.229z">
</path>
</symbol>
<symbol id="icon-linkedin" viewBox="0 0 32 32">
<path d="M31.992 32v-.001H32V20.263c0-5.741-1.236-10.164-7.948-10.164-3.227 0-5.392 1.771-6.276 3.449h-.093v-2.913h-6.364v21.364h6.627V21.42c0-2.785.528-5.479 3.977-5.479 3.399 0 3.449 3.179 3.449 5.657v10.401h6.62zM.528 10.636h6.635V32H.528V10.636zM3.843 0C1.722 0 0 1.721 0 3.843s1.721 3.879 3.843 3.879c2.121 0 3.843-1.757 3.843-3.879A3.846 3.846 0 0 0 3.843 0z"/>
</symbol>
<symbol id="icon-facebook" viewBox="0 0 32 32">
<path  d="M21.329 5.313h2.921V.225C23.746.156 22.013 0 19.994 0c-4.212 0-7.097 2.649-7.097 7.519V12H8.249v5.688h4.648V32h5.699V17.689h4.46l.708-5.688h-5.169V8.082c.001-1.644.444-2.769 2.735-2.769z"/>
</symbol>
<symbol id="icon-github" viewBox="0 0 32 32">
<path d="M16 0.395c-8.836 0-16 7.163-16 16 0 7.069 4.585 13.067 10.942 15.182 0.8 0.148 1.094-0.347 1.094-0.77 0-0.381-0.015-1.642-0.022-2.979-4.452 0.968-5.391-1.888-5.391-1.888-0.728-1.849-1.776-2.341-1.776-2.341-1.452-0.993 0.11-0.973 0.11-0.973 1.606 0.113 2.452 1.649 2.452 1.649 1.427 2.446 3.743 1.739 4.656 1.33 0.143-1.034 0.558-1.74 1.016-2.14-3.554-0.404-7.29-1.777-7.29-7.907 0-1.747 0.625-3.174 1.649-4.295-0.166-0.403-0.714-2.030 0.155-4.234 0 0 1.344-0.43 4.401 1.64 1.276-0.355 2.645-0.532 4.005-0.539 1.359 0.006 2.729 0.184 4.008 0.539 3.054-2.070 4.395-1.64 4.395-1.64 0.871 2.204 0.323 3.831 0.157 4.234 1.026 1.12 1.647 2.548 1.647 4.295 0 6.145-3.743 7.498-7.306 7.895 0.574 0.497 1.085 1.47 1.085 2.963 0 2.141-0.019 3.864-0.019 4.391 0 0.426 0.288 0.925 1.099 0.768 6.354-2.118 10.933-8.113 10.933-15.18 0-8.837-7.164-16-16-16z"></path>
</symbol>
</defs>
</svg>
