<svg xmlns="http://www.w3.org/2000/svg" aria-hidden="true" style="position:absolute;width:0;height:0;overflow:hidden"><defs><symbol id="icon-darkTheme" viewBox="0 0 32 32"><path d="M17.212 31.294c-8.438 0-15.294-6.863-15.294-15.294s6.863-15.294 15.294-15.294c0.512 0 1.025 0.025 1.538 0.075 0.45 0.044 0.844 0.325 1.031 0.731s0.15 0.887-0.1 1.262c-1.438 2.112-2.2 4.581-2.2 7.138 0 6.563 4.919 12.012 11.45 12.663 0.45 0.044 0.844 0.325 1.031 0.731 0.194 0.406 0.15 0.887-0.1 1.262-2.863 4.212-7.587 6.725-12.65 6.725zM16.431 3.294c-6.656 0.406-11.95 5.95-11.95 12.706 0 7.019 5.713 12.731 12.731 12.731 3.525 0 6.85-1.462 9.238-3.981-2.887-0.731-5.506-2.3-7.55-4.538-2.569-2.825-3.988-6.475-3.988-10.287 0.006-2.319 0.525-4.575 1.519-6.631z"></path></symbol><symbol id="icon-lightTheme" viewBox="0 0 32 32"><path d="M8.5 15.986c0 4.148 3.358 7.51 7.5 7.51s7.5-3.363 7.5-7.51c0-4.148-3.358-7.51-7.5-7.51s-7.5 3.362-7.5 7.51zM22.5 15.986c0 3.589-2.916 6.509-6.5 6.509s-6.5-2.92-6.5-6.509c0-3.589 2.916-6.509 6.5-6.509s6.5 2.92 6.5 6.509zM16.371 5.885c0.276 0 0.5-0.224 0.5-0.5 0-0 0-0 0-0.001v0-4.885c0-0.276-0.224-0.5-0.5-0.5s-0.5 0.224-0.5 0.5v0 4.884c0 0 0 0 0 0 0 0.276 0.224 0.5 0.5 0.5v0zM24.323 2.329c-0.072-0.043-0.159-0.068-0.252-0.068-0.184 0-0.345 0.1-0.431 0.248l-0.001 0.002-2.442 4.229c-0.036 0.067-0.057 0.148-0.057 0.233 0 0.276 0.224 0.5 0.5 0.5 0.176 0 0.332-0.091 0.421-0.229l0.001-0.002 2.442-4.229c0.042-0.072 0.067-0.159 0.067-0.251 0-0.184-0.099-0.345-0.247-0.432l-0.002-0.001zM25.381 11.514c0.084 0 0.17-0.021 0.25-0.067l4.229-2.442c0.238-0.138 0.321-0.444 0.183-0.684-0.088-0.151-0.249-0.25-0.433-0.25-0.092 0-0.178 0.025-0.252 0.068l0.002-0.001-4.23 2.442c-0.15 0.089-0.248 0.249-0.248 0.433 0 0.276 0.223 0.5 0.498 0.502h0zM5.884 16.371c0-0 0-0 0-0 0-0.276-0.224-0.5-0.5-0.5h-4.884c-0.276 0-0.5 0.224-0.5 0.5 0 0 0 0 0 0.001v-0c0 0 0 0.001 0 0.001 0 0.276 0.224 0.5 0.5 0.5 0 0 0 0 0 0h4.884c0 0 0 0 0 0 0.276 0 0.5-0.224 0.5-0.5 0-0 0-0.001 0-0.001v0zM2.141 9.005l4.229 2.442c0.072 0.042 0.158 0.067 0.25 0.067 0.184 0 0.345-0.1 0.432-0.248l0.001-0.002c0.042-0.072 0.067-0.158 0.067-0.25 0-0.184-0.099-0.345-0.248-0.433l-0.002-0.001-4.229-2.442c-0.072-0.042-0.158-0.067-0.25-0.067-0.184 0-0.345 0.1-0.432 0.248l-0.001 0.002c-0.042 0.072-0.067 0.158-0.067 0.25 0 0.184 0.099 0.345 0.248 0.433l0.002 0.001zM10.37 7.492c0.276-0.001 0.499-0.225 0.499-0.501 0-0.092-0.025-0.178-0.068-0.252l0.001 0.002-2.441-4.229c-0.088-0.151-0.249-0.251-0.433-0.251-0.092 0-0.179 0.025-0.253 0.069l0.002-0.001c-0.239 0.139-0.321 0.445-0.183 0.684l2.441 4.229c0.093 0.161 0.261 0.25 0.434 0.25zM16.371 26.116c-0.276 0-0.5 0.224-0.5 0.5 0 0 0 0 0 0.001v-0 4.883c0 0.276 0.224 0.5 0.5 0.5s0.5-0.224 0.5-0.5v0-4.883c0-0 0-0 0-0 0-0.276-0.224-0.5-0.5-0.5v0zM11.264 24.947c-0.072-0.043-0.159-0.068-0.251-0.068-0.184 0-0.344 0.1-0.43 0.248l-0.001 0.002-2.442 4.229c-0.042 0.072-0.068 0.159-0.068 0.251 0 0.276 0.224 0.5 0.5 0.5h0c0 0 0.001 0 0.001 0 0.184 0 0.344-0.1 0.431-0.248l0.001-0.002 2.442-4.229c0.042-0.072 0.067-0.158 0.067-0.251 0-0.184-0.099-0.345-0.248-0.432l-0.002-0.001zM6.741 21.196l-4.229 2.442c-0.15 0.089-0.248 0.249-0.248 0.433 0 0.276 0.223 0.5 0.499 0.502h0c0.092 0 0.178-0.025 0.252-0.068l-0.002 0.001 4.229-2.442c0.239-0.138 0.322-0.445 0.184-0.684-0.088-0.151-0.249-0.251-0.433-0.251-0.092 0-0.179 0.025-0.253 0.069l0.002-0.001zM31.5 15.87h-4.883c0 0 0 0 0 0-0.276 0-0.5 0.224-0.5 0.5 0 0 0 0.001 0 0.001v-0c0 0 0 0.001 0 0.001 0 0.276 0.224 0.5 0.5 0.5 0 0 0 0 0 0h4.883c0 0 0 0 0 0 0.276 0 0.5-0.224 0.5-0.5 0-0 0-0.001 0-0.001v0c0-0 0-0 0-0 0-0.276-0.224-0.5-0.5-0.5v0zM29.488 23.638l-4.229-2.442c-0.072-0.042-0.158-0.067-0.25-0.067-0.184 0-0.345 0.1-0.432 0.248l-0.001 0.002c-0.042 0.072-0.067 0.158-0.067 0.25 0 0.184 0.1 0.346 0.248 0.433l0.002 0.001 4.229 2.442c0.072 0.042 0.158 0.067 0.25 0.067 0.184 0 0.345-0.1 0.431-0.249l0.001-0.002c0.042-0.072 0.067-0.158 0.067-0.25 0-0.184-0.099-0.345-0.248-0.433l-0.002-0.001zM21.419 25.129c-0.088-0.15-0.248-0.25-0.432-0.25-0.093 0-0.179 0.025-0.253 0.069l0.002-0.001c-0.15 0.088-0.25 0.249-0.25 0.433 0 0.092 0.025 0.179 0.069 0.253l-0.001-0.002 2.442 4.229c0.088 0.15 0.248 0.25 0.432 0.25 0.092 0 0.179-0.025 0.253-0.069l-0.002 0.001c0.239-0.138 0.321-0.444 0.183-0.684l-2.442-4.229z"></path></symbol><symbol id="icon-arrow-left" viewBox="0 0 32 32"><path stroke-linecap="round" stroke-linejoin="round" stroke-width="2.667" d="M25.333 16H6.666M16 25.334l-9.333-9.333L16 6.668"/></symbol><symbol id="icon-arrow-right" viewBox="0 0 32 32"><path stroke-linecap="round" stroke-linejoin="round" stroke-width="2.667" d="M6.667 16h18.667M16 25.334l9.333-9.333L16 6.668"/></symbol><symbol id="icon-close" viewBox="0 0 32 32"><path stroke-width="2.133" d="m8.533 8.533 14.933 14.933M8.533 23.467 23.466 8.534"/></symbol><symbol id="icon-favorite" viewBox="0 0 32 32"><path fill="#ff6b08" d="m16 30.583-2.24-2.24C5.44 20.983 0 16.023 0 9.943c0-4.96 3.84-8.8 8.8-8.8 2.72 0 5.44 1.28 7.2 3.36 1.76-2.08 4.48-3.36 7.2-3.36 4.96 0 8.8 3.84 8.8 8.8 0 6.08-5.44 11.04-13.76 18.4L16 30.583z" style="fill:var(--color1, #ff6b08)"/></symbol><symbol id="icon-film" viewBox="0 0 32 32"><path fill="none" stroke="currentColor" stroke-linecap="round" stroke-linejoin="round" stroke-width="2.667" d="M26.427 2.667H5.574a2.907 2.907 0 0 0-2.907 2.907v20.853a2.907 2.907 0 0 0 2.907 2.907h20.853a2.907 2.907 0 0 0 2.907-2.907V5.574a2.907 2.907 0 0 0-2.907-2.907zM9.333 2.667v26.667M22.667 2.667v26.667M2.667 16h26.667M2.667 9.333h6.667M2.667 22.667h6.667M22.667 22.667h6.667M22.667 9.333h6.667" style="stroke:var(--color2, #fff)"/></symbol><symbol id="icon-search" viewBox="0 0 32 32"><path fill="none" stroke="#fff" stroke-linecap="round" stroke-linejoin="round" stroke-width="2.667" d="M14.667 25.333c5.891 0 10.667-4.776 10.667-10.667S20.558 3.999 14.667 3.999 4 8.775 4 14.666s4.776 10.667 10.667 10.667zM28 28.001l-5.8-5.8" style="stroke:var(--color2, #fff)"/></symbol><symbol id="icon-play2" viewBox="0 0 32 32"><path d="M16 0C7.163 0 0 7.163 0 16s7.163 16 16 16 16-7.163 16-16S24.837 0 16 0zm0 29C8.82 29 3 23.18 3 16S8.82 3 16 3s13 5.82 13 13-5.82 13-13 13zM12 9l12 7-12 7z"/></symbol></defs></svg>